<?xml version="1.0" standalone="no"?>
<!DOCTYPE svg PUBLIC "-//W3C//DTD SVG 20010904//EN"
 "http://www.w3.org/TR/2001/REC-SVG-20010904/DTD/svg10.dtd">
<svg version="1.0" xmlns="http://www.w3.org/2000/svg"
 width="1000.000000pt" height="1000.000000pt" viewBox="0 0 1000.000000 1000.000000"
 preserveAspectRatio="xMidYMid meet">
<metadata>
Created by potrace 1.14, written by Peter Selinger 2001-2017
</metadata>
<g transform="translate(0.000000,1000.000000) scale(0.100000,-0.100000)"
fill="#000000" stroke="none">
<path d="M1758 7175 c-143 -53 -306 -234 -377 -420 -13 -33 -27 -69 -32 -80
-38 -88 -56 -298 -37 -430 17 -117 74 -272 129 -350 36 -51 39 -61 30 -87 -14
-39 -7 -203 9 -223 7 -8 10 -15 7 -15 -11 0 35 -95 78 -160 43 -67 103 -138
165 -196 98 -92 136 -124 148 -124 6 0 12 -4 12 -9 0 -6 13 -18 30 -28 18 -10
34 -31 41 -53 14 -46 29 -79 54 -115 11 -16 18 -30 15 -30 -7 0 54 -86 92
-130 44 -51 178 -184 178 -177 0 3 8 -4 18 -14 9 -11 45 -40 79 -65 l61 -46
-65 -69 c-35 -38 -101 -107 -145 -154 -45 -47 -87 -96 -94 -108 -24 -46 8
-133 75 -206 51 -56 350 -363 386 -397 97 -91 511 -506 570 -571 39 -43 74
-78 78 -78 9 0 4 46 -6 56 -4 4 -7 16 -7 26 0 10 -4 26 -9 36 -5 9 -19 40 -32
67 -26 54 -99 187 -108 195 -14 12 -51 70 -51 79 0 5 -4 11 -8 13 -20 8 -160
220 -255 388 -48 83 -108 210 -126 265 -17 52 -17 56 0 84 16 26 57 58 63 49
1 -2 15 -25 31 -53 15 -27 31 -52 35 -55 3 -3 17 -21 30 -40 13 -19 27 -37 30
-40 3 -3 16 -19 30 -36 100 -126 318 -394 335 -410 8 -8 51 -64 96 -124 74
-100 113 -138 94 -92 -4 9 -14 37 -21 62 -14 45 -26 73 -69 160 -27 56 -74
141 -88 158 -12 15 -187 365 -184 368 1 1 65 -29 141 -67 77 -37 143 -66 147
-63 4 2 9 0 11 -4 3 -8 167 -68 205 -75 10 -2 25 -6 33 -10 19 -7 127 -35 160
-41 35 -7 59 -12 105 -24 22 -5 47 -10 55 -10 8 0 46 -8 83 -16 38 -8 85 -18
105 -20 78 -11 160 -23 202 -31 9 -2 47 -6 85 -9 39 -4 77 -9 85 -11 8 -2 53
-7 100 -10 47 -3 99 -7 115 -9 82 -10 348 -21 630 -26 197 -4 204 -5 168 -46
-10 -10 -25 -28 -33 -38 -14 -18 -13 -19 10 -12 97 29 169 39 270 39 91 1 226
-12 296 -28 12 -3 39 -7 60 -10 21 -4 57 -11 79 -17 22 -6 48 -12 57 -13 10
-1 21 -5 24 -8 13 -12 -62 -97 -166 -188 -24 -21 -156 -109 -164 -109 -2 0
-30 -12 -62 -27 -33 -15 -61 -28 -64 -28 -3 -1 -25 -8 -50 -15 -25 -8 -52 -15
-60 -16 -8 -1 -35 -6 -60 -12 -25 -5 -70 -11 -100 -12 -30 -1 -61 -3 -67 -3
-25 -1 -12 -18 48 -65 53 -41 82 -58 171 -103 42 -21 151 -42 228 -44 89 -2
212 20 285 50 63 27 149 68 160 77 5 5 35 25 66 46 87 57 135 98 251 213 97
96 158 148 158 134 0 -4 109 51 155 78 256 156 400 281 533 463 31 43 65 77
89 89 58 30 113 65 161 103 24 19 45 33 46 31 11 -12 -106 -309 -183 -466 -72
-146 -114 -244 -127 -293 -2 -8 -10 -39 -19 -69 -17 -63 -13 -76 10 -32 8 17
20 31 25 31 6 0 10 6 10 13 0 11 95 164 110 177 10 9 80 110 80 116 0 3 6 12
13 19 16 19 30 37 42 58 28 45 131 192 138 195 4 2 7 8 7 12 0 5 19 37 43 72
24 35 54 83 67 108 14 25 25 46 26 48 1 2 14 -4 29 -14 25 -16 26 -21 21 -73
-6 -70 -14 -109 -27 -133 -5 -10 -8 -18 -5 -18 6 0 -50 -166 -74 -217 -11 -24
-20 -47 -20 -52 0 -17 -113 -274 -152 -345 -38 -70 -95 -269 -104 -361 l-5
-50 30 35 c17 19 31 40 31 47 0 6 4 13 8 15 4 2 25 32 47 68 34 58 150 227
165 240 3 3 10 12 15 21 35 57 80 119 87 119 4 0 8 4 8 10 0 7 139 211 167
245 18 21 231 342 257 388 15 26 25 47 21 47 -4 0 -2 7 5 15 14 17 16 87 3
110 -5 8 -101 83 -214 166 -112 82 -211 156 -219 162 -8 7 -31 23 -50 37 -19
13 -41 30 -48 37 -7 7 -17 13 -22 13 -5 0 -11 14 -15 31 -6 25 0 41 30 87 21
30 42 60 47 66 5 6 32 45 59 86 41 61 49 80 46 108 -8 55 -38 78 -125 92 -42
8 -84 15 -92 16 -8 2 -31 6 -50 8 -100 15 -104 16 -124 57 -14 29 -14 35 5 78
18 39 58 131 90 206 26 61 27 72 9 112 -22 51 -31 52 -231 46 l-156 -4 -19 28
c-22 33 -23 39 -11 78 4 17 10 39 12 50 2 11 6 31 9 45 8 42 15 71 20 88 44
145 2 208 -121 181 -76 -17 -65 -14 -169 -41 l-92 -24 -30 25 -30 26 5 176 c4
176 4 177 -20 205 -19 21 -33 28 -58 27 -32 -2 -260 -100 -283 -123 -15 -15
-37 -12 -72 9 -32 20 -34 27 -51 161 -2 19 -6 46 -9 60 -3 14 -7 41 -9 60 -6
56 -22 89 -56 109 -26 16 -37 17 -62 8 -18 -6 -36 -15 -42 -19 -5 -5 -60 -47
-122 -93 -110 -82 -112 -83 -147 -73 -28 9 -39 20 -51 52 -9 23 -16 46 -16 51
0 6 -5 16 -11 23 -6 6 -7 12 -3 12 4 0 3 6 -2 13 -6 6 -16 30 -22 52 -7 22
-16 49 -21 60 -5 11 -14 35 -22 53 -13 33 -52 53 -93 49 -25 -2 -230 -212
-243 -248 -2 -5 -8 -7 -13 -3 -5 3 -9 0 -9 -6 0 -7 -7 -7 -22 1 -13 7 -24 12
-25 11 -13 -9 -32 17 -104 138 -45 77 -88 145 -95 151 -6 5 -28 12 -47 14 -28
4 -42 -1 -66 -22 -17 -15 -31 -30 -31 -34 0 -9 -131 -231 -145 -245 -5 -5 -26
-10 -45 -10 -29 1 -43 9 -75 46 -152 171 -179 198 -208 205 -40 11 -79 -15
-104 -67 -13 -26 -24 -55 -26 -65 -1 -10 -5 -22 -8 -28 -4 -5 -14 -35 -24 -65
-10 -30 -20 -59 -24 -65 -3 -5 -6 -12 -7 -15 -14 -46 -23 -58 -36 -48 -2 1
-13 -4 -25 -10 -20 -11 -34 -4 -145 79 -158 118 -171 124 -220 96 -21 -11 -36
-23 -33 -25 3 -3 0 -10 -5 -17 -5 -6 -12 -29 -14 -51 -2 -21 -9 -70 -16 -109
-6 -38 -14 -88 -17 -110 -7 -54 -17 -70 -52 -84 -27 -12 -39 -8 -167 54 -159
76 -192 82 -231 41 -29 -31 -28 -18 -19 -295 3 -78 1 -84 -23 -107 -14 -13
-31 -24 -38 -24 -7 0 -78 16 -158 35 -80 19 -157 33 -171 31 -27 -5 -63 -40
-65 -63 -1 -7 -2 -19 -2 -25 -1 -11 20 -122 29 -153 2 -5 6 -23 9 -40 3 -16 8
-38 11 -47 3 -10 7 -30 10 -44 3 -15 6 -30 7 -35 1 -4 -7 -22 -18 -39 l-20
-31 -173 4 c-173 5 -173 5 -198 -20 -13 -13 -24 -27 -25 -31 0 -4 -2 -15 -4
-25 -4 -19 17 -75 87 -233 45 -99 45 -101 29 -134 -17 -35 -36 -44 -116 -55
-22 -3 -67 -11 -100 -17 -33 -5 -73 -12 -90 -15 -16 -3 -42 -16 -57 -30 -22
-21 -26 -33 -24 -68 1 -23 8 -48 15 -56 29 -32 171 -245 171 -256 0 -15 -24
-7 -62 19 -14 10 -31 18 -37 18 -6 0 -11 5 -11 10 0 6 -7 10 -15 10 -8 0 -15
5 -15 10 0 6 -6 10 -14 10 -8 0 -16 3 -18 8 -1 4 -25 25 -53 46 -66 52 -146
136 -168 178 l-17 33 65 68 c36 38 78 87 93 110 15 23 32 48 39 55 6 6 15 22
19 35 3 12 11 28 17 36 14 16 32 65 56 147 32 110 15 292 -36 403 -9 20 -34
64 -56 99 -29 46 -36 66 -29 75 6 7 14 28 17 47 3 18 8 37 11 42 26 41 21 281
-9 438 -2 8 -11 41 -21 73 -11 31 -16 60 -13 64 4 3 19 1 34 -5 47 -18 93 -22
93 -7 0 7 -7 16 -16 19 -14 5 -14 7 1 22 34 35 58 99 59 159 l1 60 -51 -1
c-28 -1 -61 -7 -75 -14 -24 -13 -23 -13 16 -27 48 -16 56 -29 42 -62 -17 -39
-27 -41 -56 -15 -14 13 -28 24 -31 25 -3 0 -22 1 -43 3 -21 2 -47 12 -60 24
-13 12 -31 22 -41 22 -9 0 -14 5 -11 11 4 5 -5 28 -19 50 -15 21 -24 39 -22
39 2 0 24 -9 49 -19 62 -27 77 -12 28 27 -22 18 -42 40 -45 50 -9 26 -45 40
-78 31 -19 -5 -30 -3 -35 5 -15 25 -89 67 -152 86 -74 23 -187 25 -243 5z
m325 -1565 c-1 -30 -2 -57 -3 -60 -1 -3 -2 -27 -1 -54 l0 -49 -33 35 c-32 34
-106 146 -106 161 0 4 22 7 49 7 28 0 52 4 55 8 2 4 13 8 23 8 16 0 18 -8 16
-56z m4876 -1876 c-35 -42 -162 -118 -224 -134 -36 -9 -69 -14 -74 -10 -6 3
-9 19 -9 36 1 17 -2 36 -6 42 -4 6 10 13 36 17 24 4 52 9 63 12 11 2 31 6 45
8 19 3 151 36 179 44 2 1 -2 -6 -10 -15z"/>
</g>
</svg>
